<?xml version="1.0" encoding="UTF-8" standalone="no"?>
<svg width="61px" height="59px" viewBox="0 0 61 59" version="1.1" xmlns="http://www.w3.org/2000/svg" xmlns:xlink="http://www.w3.org/1999/xlink" xmlns:sketch="http://www.bohemiancoding.com/sketch/ns">
    <!-- Generator: Sketch 3.0.4 (8053) - http://www.bohemiancoding.com/sketch -->
    <title>sign-off</title>
    <desc>Created with Sketch.</desc>
    <defs>
        <linearGradient x1="-0.00356229831%" y1="50.0036203%" x2="100%" y2="50.0036203%" id="linearGradient-1">
            <stop stop-color="#EBD9AA" offset="0%"></stop>
            <stop stop-color="#DBBD68" offset="100%"></stop>
        </linearGradient>
    </defs>
    <g id="Page-1" stroke="none" stroke-width="1" fill="none" fill-rule="evenodd" sketch:type="MSPage">
        <path d="M59.1582917,24.4562644 L56.8720417,23.6352219 L46.6478333,19.9629666 L48.5395208,9.37915805 L48.9623542,7.01426444 L46.6761042,7.83530699 L36.4334583,11.5136261 L31.0386458,2.29417933 L29.8217708,0.214285714 L28.6048958,2.29417933 L23.1953333,11.5390942 L12.9834167,7.87168997 L10.6971667,7.05064742 L11.12,9.41554103 L12.9993958,19.9290091 L2.78625,23.5952006 L0.5,24.4162432 L2.36464583,25.9600942 L10.7131458,32.8716474 L5.2531875,42.2038815 L4.0363125,44.2813495 L17.351875,44.2813495 L19.2312708,54.7984559 L19.6541042,57.1621368 L21.51875,55.6207112 L29.8537292,48.7188602 L38.1444583,55.5831155 L40.0091042,57.124541 L40.4319375,54.7608602 L42.3039583,44.2813495 L55.6109167,44.2813495 L54.3940417,42.2038815 L48.95375,32.9056049 L57.2973333,25.9989027 L59.1582917,24.4562644 L59.1582917,24.4562644 Z M45.3486042,11.2637964 L43.9657917,19.0012432 L39.9734583,17.5677538 L37.8592917,13.954924 L45.3486042,11.2637964 L45.3486042,11.2637964 Z M45.3375417,32.2798176 L44.2915208,33.1469453 L44.654125,31.1143495 L45.3375417,32.2798176 L45.3375417,32.2798176 Z M40.9432708,35.9169027 L34.1865417,41.5113921 L25.516,41.5113921 L18.6978125,35.8671793 L17.1785625,27.3644772 L21.6133958,19.7859027 L29.7762917,16.8546474 L38.0510417,19.825924 L42.4686667,27.3766049 L40.9432708,35.9169027 L40.9432708,35.9169027 Z M40.1824167,40.1664347 L39.9427292,41.5113921 L38.5574583,41.5113921 L40.1824167,40.1664347 L40.1824167,40.1664347 Z M29.8500417,45.0999666 L28.86425,44.2825623 L30.8358333,44.2825623 L29.8500417,45.0999666 L29.8500417,45.0999666 Z M15.3483333,33.0947964 L14.3219792,32.2470729 L14.991875,31.1022219 L15.3483333,33.0947964 L15.3483333,33.0947964 Z M16.1731042,21.7396687 L17.5042917,21.2618389 L16.4189375,23.1161581 L16.1731042,21.7396687 L16.1731042,21.7396687 Z M35.8655833,16.0918176 L33.8853958,15.3811368 L35.1784792,14.9178602 L35.8655833,16.0918176 L35.8655833,16.0918176 Z M42.1589167,21.3018602 L43.4704375,21.7736261 L43.2282917,23.1294985 L42.1589167,21.3018602 L42.1589167,21.3018602 Z M29.8205417,5.7614772 L33.7501875,12.4777751 L29.7762917,13.9039878 L25.8749167,12.5032432 L29.8205417,5.7614772 L29.8205417,5.7614772 Z M25.6684167,15.379924 L23.7988542,16.0517964 L24.446625,14.9421155 L25.6684167,15.379924 L25.6684167,15.379924 Z M14.3084583,11.3001793 L21.7670417,13.9791793 L19.6922083,17.5265198 L15.67775,18.9672857 L14.3084583,11.3001793 L14.3084583,11.3001793 Z M6.03247917,25.3816049 L13.4910625,22.7026049 L14.2334792,26.85269 L12.13775,30.4352006 L6.03247917,25.3816049 L6.03247917,25.3816049 Z M8.900125,41.5126049 L12.8961458,34.6847325 L16.1079583,37.3443283 L16.8516042,41.5138176 L8.900125,41.5138176 L8.900125,41.5126049 Z M19.4562083,40.1142857 L21.1438542,41.5113921 L19.7069583,41.5113921 L19.4562083,40.1142857 L19.4562083,40.1142857 Z M21.5728333,51.953307 L20.2023125,44.2837751 L24.4933333,44.2837751 L27.6658125,46.9106261 L21.5728333,51.953307 L21.5728333,51.953307 Z M38.083,51.9181368 L32.0355,46.9106261 L35.2079792,44.2837751 L39.4461458,44.2837751 L38.083,51.9181368 L38.083,51.9181368 Z M50.7397292,41.5126049 L42.795625,41.5126049 L43.5318958,37.3940517 L46.7646042,34.71869 L50.7397292,41.5126049 L50.7397292,41.5126049 Z M47.523,30.4703708 L45.41375,26.8660304 L46.15125,22.7365623 L53.6233542,25.4192006 L47.523,30.4703708 L47.523,30.4703708 Z" id="sign-off" stroke="#8A5E3C" stroke-width="0.5" fill="url(#linearGradient-1)" sketch:type="MSShapeGroup"></path>
    </g>
</svg>